<svg xmlns="http://www.w3.org/2000/svg" xmlns:xlink="http://www.w3.org/1999/xlink" width="377" zoomAndPan="magnify" viewBox="0 0 283.5 283.500005" height="377" preserveAspectRatio="xMidYMid meet" version="1.0"><defs><clipPath id="3bb6d375f8"><path d="M 39 59 L 235 59 L 235 248 L 39 248 Z M 39 59 " clip-rule="nonzero"/></clipPath><clipPath id="471c9f0039"><path d="M 69.292969 -27.933594 L 308.785156 63.90625 L 213.992188 311.105469 L -25.503906 219.265625 Z M 69.292969 -27.933594 " clip-rule="nonzero"/></clipPath><clipPath id="7261357111"><path d="M 69.292969 -27.933594 L 308.785156 63.90625 L 213.992188 311.105469 L -25.503906 219.265625 Z M 69.292969 -27.933594 " clip-rule="nonzero"/></clipPath><clipPath id="f28c4d8883"><path d="M 32 52 L 242 52 L 242 255 L 32 255 Z M 32 52 " clip-rule="nonzero"/></clipPath><clipPath id="5a78676517"><path d="M 69.292969 -27.933594 L 308.785156 63.90625 L 213.992188 311.105469 L -25.503906 219.265625 Z M 69.292969 -27.933594 " clip-rule="nonzero"/></clipPath><clipPath id="d849278b00"><path d="M 69.292969 -27.933594 L 308.785156 63.90625 L 213.992188 311.105469 L -25.503906 219.265625 Z M 69.292969 -27.933594 " clip-rule="nonzero"/></clipPath><clipPath id="bdb536706d"><path d="M 47 80 L 173 80 L 173 113 L 47 113 Z M 47 80 " clip-rule="nonzero"/></clipPath><clipPath id="172cf46c81"><path d="M 69.292969 -27.933594 L 308.785156 63.90625 L 213.992188 311.105469 L -25.503906 219.265625 Z M 69.292969 -27.933594 " clip-rule="nonzero"/></clipPath><clipPath id="15011dc79e"><path d="M 69.292969 -27.933594 L 308.785156 63.90625 L 213.992188 311.105469 L -25.503906 219.265625 Z M 69.292969 -27.933594 " clip-rule="nonzero"/></clipPath><clipPath id="392e1d17f7"><path d="M 58 105 L 183 105 L 183 138 L 58 138 Z M 58 105 " clip-rule="nonzero"/></clipPath><clipPath id="a48faeb301"><path d="M 69.292969 -27.933594 L 308.785156 63.90625 L 213.992188 311.105469 L -25.503906 219.265625 Z M 69.292969 -27.933594 " clip-rule="nonzero"/></clipPath><clipPath id="2a020ee234"><path d="M 69.292969 -27.933594 L 308.785156 63.90625 L 213.992188 311.105469 L -25.503906 219.265625 Z M 69.292969 -27.933594 " clip-rule="nonzero"/></clipPath><clipPath id="4e6d2c2c12"><path d="M 71 127 L 194 127 L 194 160 L 71 160 Z M 71 127 " clip-rule="nonzero"/></clipPath><clipPath id="46378f9463"><path d="M 69.292969 -27.933594 L 308.785156 63.90625 L 213.992188 311.105469 L -25.503906 219.265625 Z M 69.292969 -27.933594 " clip-rule="nonzero"/></clipPath><clipPath id="64b5d86438"><path d="M 69.292969 -27.933594 L 308.785156 63.90625 L 213.992188 311.105469 L -25.503906 219.265625 Z M 69.292969 -27.933594 " clip-rule="nonzero"/></clipPath><clipPath id="ca04c133d2"><path d="M 83 149 L 203 149 L 203 182 L 83 182 Z M 83 149 " clip-rule="nonzero"/></clipPath><clipPath id="ac21f90988"><path d="M 69.292969 -27.933594 L 308.785156 63.90625 L 213.992188 311.105469 L -25.503906 219.265625 Z M 69.292969 -27.933594 " clip-rule="nonzero"/></clipPath><clipPath id="63033df916"><path d="M 69.292969 -27.933594 L 308.785156 63.90625 L 213.992188 311.105469 L -25.503906 219.265625 Z M 69.292969 -27.933594 " clip-rule="nonzero"/></clipPath><clipPath id="85acf345ed"><path d="M 93 171 L 214 171 L 214 205 L 93 205 Z M 93 171 " clip-rule="nonzero"/></clipPath><clipPath id="8b4698c77e"><path d="M 69.292969 -27.933594 L 308.785156 63.90625 L 213.992188 311.105469 L -25.503906 219.265625 Z M 69.292969 -27.933594 " clip-rule="nonzero"/></clipPath><clipPath id="9752f18500"><path d="M 69.292969 -27.933594 L 308.785156 63.90625 L 213.992188 311.105469 L -25.503906 219.265625 Z M 69.292969 -27.933594 " clip-rule="nonzero"/></clipPath><clipPath id="116af99d90"><path d="M 100 193 L 227 193 L 227 227 L 100 227 Z M 100 193 " clip-rule="nonzero"/></clipPath><clipPath id="5ede2fdbc7"><path d="M 69.292969 -27.933594 L 308.785156 63.90625 L 213.992188 311.105469 L -25.503906 219.265625 Z M 69.292969 -27.933594 " clip-rule="nonzero"/></clipPath><clipPath id="ee4463047a"><path d="M 69.292969 -27.933594 L 308.785156 63.90625 L 213.992188 311.105469 L -25.503906 219.265625 Z M 69.292969 -27.933594 " clip-rule="nonzero"/></clipPath><clipPath id="ab5fb2bbbd"><path d="M 134 61 L 211 61 L 211 230 L 134 230 Z M 134 61 " clip-rule="nonzero"/></clipPath><clipPath id="4a70934d36"><path d="M 69.292969 -27.933594 L 308.785156 63.90625 L 213.992188 311.105469 L -25.503906 219.265625 Z M 69.292969 -27.933594 " clip-rule="nonzero"/></clipPath><clipPath id="5fc68ddfda"><path d="M 69.292969 -27.933594 L 308.785156 63.90625 L 213.992188 311.105469 L -25.503906 219.265625 Z M 69.292969 -27.933594 " clip-rule="nonzero"/></clipPath><clipPath id="5e21bd46d8"><path d="M 111 68 L 188 68 L 188 234 L 111 234 Z M 111 68 " clip-rule="nonzero"/></clipPath><clipPath id="98ca3cb39b"><path d="M 69.292969 -27.933594 L 308.785156 63.90625 L 213.992188 311.105469 L -25.503906 219.265625 Z M 69.292969 -27.933594 " clip-rule="nonzero"/></clipPath><clipPath id="17162490ba"><path d="M 69.292969 -27.933594 L 308.785156 63.90625 L 213.992188 311.105469 L -25.503906 219.265625 Z M 69.292969 -27.933594 " clip-rule="nonzero"/></clipPath><clipPath id="c9a5ffcbfb"><path d="M 87 74 L 164 74 L 164 235 L 87 235 Z M 87 74 " clip-rule="nonzero"/></clipPath><clipPath id="c29540ca4d"><path d="M 69.292969 -27.933594 L 308.785156 63.90625 L 213.992188 311.105469 L -25.503906 219.265625 Z M 69.292969 -27.933594 " clip-rule="nonzero"/></clipPath><clipPath id="39fc30585b"><path d="M 69.292969 -27.933594 L 308.785156 63.90625 L 213.992188 311.105469 L -25.503906 219.265625 Z M 69.292969 -27.933594 " clip-rule="nonzero"/></clipPath><clipPath id="f055113619"><path d="M 63 80 L 140 80 L 140 244 L 63 244 Z M 63 80 " clip-rule="nonzero"/></clipPath><clipPath id="5347fffa0a"><path d="M 69.292969 -27.933594 L 308.785156 63.90625 L 213.992188 311.105469 L -25.503906 219.265625 Z M 69.292969 -27.933594 " clip-rule="nonzero"/></clipPath><clipPath id="cedc038227"><path d="M 69.292969 -27.933594 L 308.785156 63.90625 L 213.992188 311.105469 L -25.503906 219.265625 Z M 69.292969 -27.933594 " clip-rule="nonzero"/></clipPath><clipPath id="d3cc65bda8"><path d="M 175 168 L 206 168 L 206 209 L 175 209 Z M 175 168 " clip-rule="nonzero"/></clipPath><clipPath id="01a32b2cf1"><path d="M 69.292969 -27.933594 L 308.785156 63.90625 L 213.992188 311.105469 L -25.503906 219.265625 Z M 69.292969 -27.933594 " clip-rule="nonzero"/></clipPath><clipPath id="3fa2e12070"><path d="M 69.292969 -27.933594 L 308.785156 63.90625 L 213.992188 311.105469 L -25.503906 219.265625 Z M 69.292969 -27.933594 " clip-rule="nonzero"/></clipPath><clipPath id="da2bd407be"><path d="M 171 164 L 210 164 L 210 213 L 171 213 Z M 171 164 " clip-rule="nonzero"/></clipPath><clipPath id="b8b2892ae4"><path d="M 69.292969 -27.933594 L 308.785156 63.90625 L 213.992188 311.105469 L -25.503906 219.265625 Z M 69.292969 -27.933594 " clip-rule="nonzero"/></clipPath><clipPath id="8187f2f1a4"><path d="M 69.292969 -27.933594 L 308.785156 63.90625 L 213.992188 311.105469 L -25.503906 219.265625 Z M 69.292969 -27.933594 " clip-rule="nonzero"/></clipPath><clipPath id="674137b359"><path d="M 190 62 L 276 62 L 276 179 L 190 179 Z M 190 62 " clip-rule="nonzero"/></clipPath><clipPath id="0923b2df5b"><path d="M 69.292969 -27.933594 L 308.785156 63.90625 L 213.992188 311.105469 L -25.503906 219.265625 Z M 69.292969 -27.933594 " clip-rule="nonzero"/></clipPath><clipPath id="99239db477"><path d="M 69.292969 -27.933594 L 308.785156 63.90625 L 213.992188 311.105469 L -25.503906 219.265625 Z M 69.292969 -27.933594 " clip-rule="nonzero"/></clipPath><clipPath id="cb637eb595"><path d="M 186 58 L 280 58 L 280 183 L 186 183 Z M 186 58 " clip-rule="nonzero"/></clipPath><clipPath id="77586cde92"><path d="M 69.292969 -27.933594 L 308.785156 63.90625 L 213.992188 311.105469 L -25.503906 219.265625 Z M 69.292969 -27.933594 " clip-rule="nonzero"/></clipPath><clipPath id="226dfe76d1"><path d="M 69.292969 -27.933594 L 308.785156 63.90625 L 213.992188 311.105469 L -25.503906 219.265625 Z M 69.292969 -27.933594 " clip-rule="nonzero"/></clipPath><clipPath id="26895a13a4"><path d="M 180 195 L 185 195 L 185 201 L 180 201 Z M 180 195 " clip-rule="nonzero"/></clipPath><clipPath id="9cb6b0bb1e"><path d="M 69.292969 -27.933594 L 308.785156 63.90625 L 213.992188 311.105469 L -25.503906 219.265625 Z M 69.292969 -27.933594 " clip-rule="nonzero"/></clipPath><clipPath id="5641f5e6fc"><path d="M 69.292969 -27.933594 L 308.785156 63.90625 L 213.992188 311.105469 L -25.503906 219.265625 Z M 69.292969 -27.933594 " clip-rule="nonzero"/></clipPath><clipPath id="1ef16d082a"><path d="M 134 150 L 230 150 L 230 246 L 134 246 Z M 134 150 " clip-rule="nonzero"/></clipPath><clipPath id="6651d7189f"><path d="M 69.292969 -27.933594 L 308.785156 63.90625 L 213.992188 311.105469 L -25.503906 219.265625 Z M 69.292969 -27.933594 " clip-rule="nonzero"/></clipPath><clipPath id="1dc5f602e6"><path d="M 69.292969 -27.933594 L 308.785156 63.90625 L 213.992188 311.105469 L -25.503906 219.265625 Z M 69.292969 -27.933594 " clip-rule="nonzero"/></clipPath><clipPath id="0fbcbbf263"><path d="M 261 54 L 280 54 L 280 71 L 261 71 Z M 261 54 " clip-rule="nonzero"/></clipPath><clipPath id="d499b40b8d"><path d="M 69.292969 -27.933594 L 308.785156 63.90625 L 213.992188 311.105469 L -25.503906 219.265625 Z M 69.292969 -27.933594 " clip-rule="nonzero"/></clipPath><clipPath id="3911c5fa62"><path d="M 69.292969 -27.933594 L 308.785156 63.90625 L 213.992188 311.105469 L -25.503906 219.265625 Z M 69.292969 -27.933594 " clip-rule="nonzero"/></clipPath><clipPath id="c566dda986"><path d="M 215 9 L 283 9 L 283 116 L 215 116 Z M 215 9 " clip-rule="nonzero"/></clipPath><clipPath id="f0074eee99"><path d="M 69.292969 -27.933594 L 308.785156 63.90625 L 213.992188 311.105469 L -25.503906 219.265625 Z M 69.292969 -27.933594 " clip-rule="nonzero"/></clipPath><clipPath id="d0cbc630f1"><path d="M 69.292969 -27.933594 L 308.785156 63.90625 L 213.992188 311.105469 L -25.503906 219.265625 Z M 69.292969 -27.933594 " clip-rule="nonzero"/></clipPath><clipPath id="0dad9b98f9"><path d="M 12 82 L 169 82 L 169 204 L 12 204 Z M 12 82 " clip-rule="nonzero"/></clipPath><clipPath id="3c503940ef"><path d="M 69.292969 -27.933594 L 308.785156 63.90625 L 213.992188 311.105469 L -25.503906 219.265625 Z M 69.292969 -27.933594 " clip-rule="nonzero"/></clipPath><clipPath id="c0bde6aa8a"><path d="M 69.292969 -27.933594 L 308.785156 63.90625 L 213.992188 311.105469 L -25.503906 219.265625 Z M 69.292969 -27.933594 " clip-rule="nonzero"/></clipPath><clipPath id="ff0e724365"><path d="M 8 78 L 173 78 L 173 208 L 8 208 Z M 8 78 " clip-rule="nonzero"/></clipPath><clipPath id="4563eb9d56"><path d="M 69.292969 -27.933594 L 308.785156 63.90625 L 213.992188 311.105469 L -25.503906 219.265625 Z M 69.292969 -27.933594 " clip-rule="nonzero"/></clipPath><clipPath id="22fea91846"><path d="M 69.292969 -27.933594 L 308.785156 63.90625 L 213.992188 311.105469 L -25.503906 219.265625 Z M 69.292969 -27.933594 " clip-rule="nonzero"/></clipPath></defs><g clip-path="url(#3bb6d375f8)"><g clip-path="url(#471c9f0039)"><g clip-path="url(#7261357111)"><path fill="#8890b8" d="M 42.132812 86.339844 L 158.082031 59.578125 C 158.40625 59.503906 158.746094 59.46875 159.105469 59.476562 C 159.460938 59.488281 159.828125 59.535156 160.203125 59.628906 C 160.578125 59.71875 160.953125 59.851562 161.328125 60.019531 C 161.707031 60.191406 162.078125 60.398438 162.445312 60.644531 C 162.8125 60.886719 163.164062 61.164062 163.503906 61.472656 C 163.847656 61.777344 164.167969 62.113281 164.46875 62.472656 C 164.773438 62.832031 165.050781 63.210938 165.300781 63.605469 C 165.554688 64.003906 165.773438 64.414062 165.96875 64.832031 L 233.800781 213.261719 C 233.992188 213.679688 234.152344 214.105469 234.277344 214.53125 C 234.402344 214.957031 234.488281 215.378906 234.542969 215.796875 C 234.59375 216.214844 234.609375 216.617188 234.589844 217.007812 C 234.570312 217.402344 234.511719 217.773438 234.417969 218.121094 C 234.320312 218.472656 234.191406 218.796875 234.027344 219.089844 C 233.863281 219.386719 233.667969 219.652344 233.441406 219.878906 C 233.214844 220.109375 232.957031 220.304688 232.675781 220.460938 C 232.394531 220.617188 232.089844 220.730469 231.765625 220.804688 L 115.816406 247.566406 C 115.492188 247.640625 115.152344 247.675781 114.792969 247.664062 C 114.4375 247.65625 114.070312 247.609375 113.695312 247.515625 C 113.324219 247.425781 112.945312 247.292969 112.570312 247.121094 C 112.191406 246.953125 111.820312 246.746094 111.453125 246.5 C 111.085938 246.257812 110.734375 245.980469 110.394531 245.671875 C 110.050781 245.367188 109.730469 245.03125 109.429688 244.671875 C 109.128906 244.3125 108.851562 243.933594 108.597656 243.535156 C 108.347656 243.140625 108.125 242.730469 107.933594 242.3125 L 40.097656 93.882812 C 39.90625 93.464844 39.746094 93.039062 39.621094 92.613281 C 39.496094 92.1875 39.410156 91.765625 39.355469 91.347656 C 39.304688 90.929688 39.289062 90.527344 39.308594 90.132812 C 39.332031 89.742188 39.386719 89.371094 39.484375 89.023438 C 39.578125 88.671875 39.707031 88.347656 39.871094 88.054688 C 40.035156 87.757812 40.230469 87.492188 40.457031 87.261719 C 40.6875 87.035156 40.941406 86.839844 41.222656 86.683594 C 41.503906 86.527344 41.808594 86.414062 42.132812 86.339844 " fill-opacity="1" fill-rule="evenodd"/></g></g></g><g clip-path="url(#f28c4d8883)"><g clip-path="url(#5a78676517)"><g clip-path="url(#d849278b00)"><path stroke-linecap="butt" transform="matrix(2.977804, -0.68725, 1.755634, 3.841487, -104.368897, 77.037662)" fill="none" stroke-linejoin="round" d="M 43.212376 10.152291 L 82.150434 10.151892 C 82.259228 10.152035 82.367345 10.162226 82.47543 10.183597 C 82.581786 10.205674 82.686822 10.236668 82.787723 10.279124 C 82.889166 10.32066 82.984643 10.372314 83.07524 10.432247 C 83.166481 10.493312 83.250469 10.562231 83.327846 10.640136 C 83.405766 10.717121 83.474058 10.801536 83.534452 10.892673 C 83.596575 10.983101 83.64724 11.079615 83.688717 11.180587 C 83.731381 11.281771 83.763028 11.386067 83.784198 11.492558 C 83.806013 11.60018 83.815522 11.708651 83.816826 11.817688 L 83.815849 50.456112 C 83.815967 50.564937 83.805506 50.673903 83.784367 50.780959 C 83.763227 50.888015 83.730763 50.992027 83.689348 51.093422 C 83.646747 51.194605 83.595635 51.290197 83.535471 51.381119 C 83.474764 51.472962 83.405445 51.557162 83.3287 51.633932 C 83.250227 51.711411 83.166056 51.780752 83.075544 51.840823 C 82.98449 51.901815 82.888282 51.953749 82.788003 51.994787 C 82.687182 52.036745 82.581749 52.068725 82.474619 52.090234 C 82.36749 52.111743 82.259206 52.121859 82.150412 52.121716 L 43.212354 52.122114 C 43.10356 52.121971 42.995442 52.111781 42.8879 52.08949 C 42.781001 52.068332 42.675966 52.037339 42.575065 51.994883 C 42.474808 51.953559 42.378144 51.901692 42.28809 51.84084 C 42.196306 51.780695 42.112319 51.711776 42.034942 51.63387 C 41.957022 51.556885 41.88873 51.472471 41.828336 51.381334 C 41.766213 51.290905 41.715548 51.194391 41.67407 51.09342 C 41.632593 50.992448 41.600946 50.888152 41.579131 50.780529 C 41.557961 50.674039 41.547266 50.565356 41.547148 50.456531 L 41.546938 11.817895 C 41.546821 11.70907 41.557281 11.600103 41.578421 11.493048 C 41.599561 11.385992 41.632025 11.281979 41.673439 11.180585 C 41.716041 11.079402 41.767152 10.98381 41.827859 10.891967 C 41.88921 10.801257 41.957342 10.716845 42.035274 10.640287 C 42.112561 10.562596 42.196731 10.493255 42.287243 10.433183 C 42.378297 10.372192 42.474506 10.320257 42.575327 10.2783 C 42.676792 10.237474 42.781038 10.205281 42.888168 10.183773 C 42.995298 10.162264 43.103582 10.152147 43.212376 10.152291 " stroke="#4c4c4c" stroke-width="3.752" stroke-opacity="1" stroke-miterlimit="4"/></g></g></g><g clip-path="url(#bdb536706d)"><g clip-path="url(#172cf46c81)"><g clip-path="url(#15011dc79e)"><path stroke-linecap="round" transform="matrix(2.977804, -0.68725, 1.755634, 3.841487, -104.368897, 77.037662)" fill="none" stroke-linejoin="round" d="M 41.999674 16.276467 L 82.951818 16.206262 " stroke="#4c4c4c" stroke-width="0.75" stroke-opacity="1" stroke-miterlimit="4"/></g></g></g><g clip-path="url(#392e1d17f7)"><g clip-path="url(#a48faeb301)"><g clip-path="url(#2a020ee234)"><path stroke-linecap="round" transform="matrix(2.977804, -0.68725, 1.755634, 3.841487, -104.368897, 77.037662)" fill="none" stroke-linejoin="round" d="M 41.810155 22.85011 L 82.765314 22.521145 " stroke="#4c4c4c" stroke-width="0.75" stroke-opacity="1" stroke-miterlimit="4"/></g></g></g><g clip-path="url(#4e6d2c2c12)"><g clip-path="url(#46378f9463)"><g clip-path="url(#64b5d86438)"><path stroke-linecap="round" transform="matrix(2.977804, -0.68725, 1.755634, 3.841487, -104.368897, 77.037662)" fill="none" stroke-linejoin="round" d="M 42.534883 28.651803 L 82.946979 28.269408 " stroke="#4c4c4c" stroke-width="0.75" stroke-opacity="1" stroke-miterlimit="4"/></g></g></g><g clip-path="url(#ca04c133d2)"><g clip-path="url(#ac21f90988)"><g clip-path="url(#63033df916)"><path stroke-linecap="round" transform="matrix(2.977804, -0.68725, 1.755634, 3.841487, -104.368897, 77.037662)" fill="none" stroke-linejoin="round" d="M 43.077406 34.609019 L 82.5886 33.965798 " stroke="#4c4c4c" stroke-width="0.75" stroke-opacity="1" stroke-miterlimit="4"/></g></g></g><g clip-path="url(#85acf345ed)"><g clip-path="url(#8b4698c77e)"><g clip-path="url(#9752f18500)"><path stroke-linecap="round" transform="matrix(2.977804, -0.68725, 1.755634, 3.841487, -104.368897, 77.037662)" fill="none" stroke-linejoin="round" d="M 42.898761 40.407726 L 82.95183 39.817724 " stroke="#4c4c4c" stroke-width="0.75" stroke-opacity="1" stroke-miterlimit="4"/></g></g></g><g clip-path="url(#116af99d90)"><g clip-path="url(#5ede2fdbc7)"><g clip-path="url(#ee4463047a)"><path stroke-linecap="round" transform="matrix(2.977804, -0.68725, 1.755634, 3.841487, -104.368897, 77.037662)" fill="none" stroke-linejoin="round" d="M 42.127724 46.154348 L 83.823297 45.673124 " stroke="#4c4c4c" stroke-width="0.75" stroke-opacity="1" stroke-miterlimit="4"/></g></g></g><g clip-path="url(#ab5fb2bbbd)"><g clip-path="url(#4a70934d36)"><g clip-path="url(#5fc68ddfda)"><path stroke-linecap="round" transform="matrix(2.031688, 4.59274, -3.236101, 2.912659, 124.611759, -195.28828)" fill="none" stroke-linejoin="round" d="M 41.810315 22.849715 L 77.784576 22.536654 " stroke="#4c4c4c" stroke-width="0.585" stroke-opacity="1" stroke-miterlimit="4"/></g></g></g><g clip-path="url(#5e21bd46d8)"><g clip-path="url(#98ca3cb39b)"><g clip-path="url(#17162490ba)"><path stroke-linecap="round" transform="matrix(2.031688, 4.59274, -3.236101, 2.912659, 118.422753, -209.18193)" fill="none" stroke-linejoin="round" d="M 42.535367 28.65184 L 78.254138 28.021456 " stroke="#4c4c4c" stroke-width="0.585" stroke-opacity="1" stroke-miterlimit="4"/></g></g></g><g clip-path="url(#c9a5ffcbfb)"><g clip-path="url(#c29540ca4d)"><g clip-path="url(#39fc30585b)"><path stroke-linecap="round" transform="matrix(2.031688, 4.59274, -3.236101, 2.912659, 112.952727, -222.804419)" fill="none" stroke-linejoin="round" d="M 43.07842 34.608953 L 77.895226 33.717691 " stroke="#4c4c4c" stroke-width="0.585" stroke-opacity="1" stroke-miterlimit="4"/></g></g></g><g clip-path="url(#f055113619)"><g clip-path="url(#5347fffa0a)"><g clip-path="url(#cedc038227)"><path stroke-linecap="round" transform="matrix(2.031688, 4.59274, -3.236101, 2.912659, 108.528712, -232.7284)" fill="none" stroke-linejoin="round" d="M 42.897552 40.408251 L 78.186779 39.832897 " stroke="#4c4c4c" stroke-width="0.585" stroke-opacity="1" stroke-miterlimit="4"/></g></g></g><g clip-path="url(#d3cc65bda8)"><g clip-path="url(#01a32b2cf1)"><g clip-path="url(#3fa2e12070)"><path fill="#313442" d="M 205.765625 178.308594 L 175.371094 208.773438 L 190.703125 168.589844 Z M 205.765625 178.308594 " fill-opacity="1" fill-rule="evenodd"/></g></g></g><g clip-path="url(#da2bd407be)"><g clip-path="url(#b8b2892ae4)"><g clip-path="url(#8187f2f1a4)"><path stroke-linecap="round" transform="matrix(2.6643, -0.423263, 0.422638, 2.664806, 64.57886, 116.423827)" fill="none" stroke-linejoin="round" d="M 48.096373 30.862343 L 35.199737 40.246206 L 43.146178 26.429007 Z M 48.096373 30.862343 " stroke="#333333" stroke-width="2.967" stroke-opacity="1" stroke-miterlimit="4"/></g></g></g><g clip-path="url(#674137b359)"><g clip-path="url(#0923b2df5b)"><g clip-path="url(#99239db477)"><path fill="#8890b8" d="M 205.691406 178.207031 L 190.898438 168.5625 L 260.355469 62.023438 L 275.148438 71.667969 Z M 205.691406 178.207031 " fill-opacity="1" fill-rule="evenodd"/></g></g></g><g clip-path="url(#cb637eb595)"><g clip-path="url(#77586cde92)"><g clip-path="url(#226dfe76d1)"><path stroke-linecap="round" transform="matrix(-2.259574, -1.473513, 1.473637, -2.260369, 64.577954, 116.424069)" fill="none" stroke-linejoin="round" d="M -56.329175 9.387321 L -49.782837 9.386621 L -49.782648 56.519983 L -56.328986 56.520684 Z M -56.329175 9.387321 " stroke="#333333" stroke-width="2.967" stroke-opacity="1" stroke-miterlimit="4"/></g></g></g><g clip-path="url(#26895a13a4)"><g clip-path="url(#9cb6b0bb1e)"><g clip-path="url(#5641f5e6fc)"><path fill="#1f2128" d="M 180.488281 196.605469 C 180.324219 196.859375 180.214844 197.132812 180.160156 197.425781 C 180.105469 197.722656 180.105469 198.015625 180.167969 198.3125 C 180.230469 198.605469 180.347656 198.875 180.515625 199.125 C 180.6875 199.371094 180.898438 199.578125 181.148438 199.742188 C 181.398438 199.90625 181.671875 200.015625 181.96875 200.070312 C 182.265625 200.125 182.558594 200.121094 182.851562 200.0625 C 183.148438 200 183.417969 199.882812 183.667969 199.714844 C 183.914062 199.542969 184.121094 199.332031 184.285156 199.082031 C 184.449219 198.828125 184.558594 198.554688 184.613281 198.261719 C 184.667969 197.964844 184.664062 197.671875 184.601562 197.375 C 184.542969 197.082031 184.425781 196.8125 184.257812 196.5625 C 184.085938 196.316406 183.875 196.109375 183.625 195.945312 C 183.371094 195.78125 183.097656 195.671875 182.804688 195.617188 C 182.507812 195.5625 182.214844 195.5625 181.917969 195.625 C 181.625 195.6875 181.355469 195.804688 181.105469 195.972656 C 180.859375 196.144531 180.652344 196.355469 180.488281 196.605469 L 182.386719 197.84375 Z M 180.488281 196.605469 " fill-opacity="1" fill-rule="evenodd"/></g></g></g><g clip-path="url(#1ef16d082a)"><g clip-path="url(#6651d7189f)"><g clip-path="url(#1dc5f602e6)"><path stroke-linecap="butt" transform="matrix(-3.059389, -1.995157, 1.995325, -3.060464, 332.702254, 377.548082)" fill="none" stroke-linejoin="miter" d="M 61.966147 18.726051 C 61.965809 18.643309 61.950007 18.564265 61.918743 18.48892 C 61.886894 18.412679 61.843087 18.345511 61.784361 18.286791 C 61.72622 18.228968 61.659041 18.184694 61.583135 18.152491 C 61.506918 18.121767 61.427582 18.10584 61.345713 18.105605 C 61.263844 18.105369 61.184777 18.121176 61.108511 18.153025 C 61.032246 18.184875 60.965638 18.229574 60.907207 18.286811 C 60.848465 18.345528 60.804171 18.412694 60.77195 18.488583 C 60.741209 18.564783 60.725267 18.644099 60.725022 18.725946 C 60.72536 18.808689 60.741162 18.887733 60.772427 18.963078 C 60.804275 19.039318 60.848978 19.105903 60.907704 19.164622 C 60.964949 19.22303 61.032129 19.267304 61.108034 19.299507 C 61.184252 19.33023 61.263587 19.346157 61.345456 19.346393 C 61.428221 19.346044 61.507288 19.330237 61.582658 19.298972 C 61.658923 19.267123 61.726115 19.223319 61.784858 19.164603 C 61.842704 19.10647 61.886998 19.039303 61.919219 18.963414 C 61.949961 18.887214 61.965902 18.807898 61.966147 18.726051 L 61.345585 18.725999 Z M 61.966147 18.726051 " stroke="#333333" stroke-width="2.192" stroke-opacity="1" stroke-miterlimit="4"/></g></g></g><g clip-path="url(#0fbcbbf263)"><g clip-path="url(#d499b40b8d)"><g clip-path="url(#3911c5fa62)"><path fill="#bcc7ff" d="M 271.171875 69.546875 L 263.609375 64.613281 C 263.300781 64.414062 263.019531 64.1875 262.757812 63.933594 C 262.496094 63.679688 262.261719 63.402344 262.054688 63.105469 C 261.847656 62.804688 261.671875 62.488281 261.527344 62.15625 C 261.382812 61.824219 261.273438 61.480469 261.195312 61.125 C 261.117188 60.773438 261.078125 60.414062 261.070312 60.054688 C 261.0625 59.695312 261.09375 59.335938 261.15625 58.980469 C 261.222656 58.625 261.320312 58.28125 261.453125 57.949219 C 261.585938 57.613281 261.75 57.296875 261.949219 56.996094 C 262.144531 56.695312 262.367188 56.414062 262.621094 56.160156 C 262.875 55.902344 263.148438 55.671875 263.445312 55.46875 C 263.746094 55.269531 264.058594 55.097656 264.394531 54.957031 C 264.726562 54.816406 265.070312 54.710938 265.425781 54.640625 C 265.78125 54.566406 266.136719 54.53125 266.5 54.527344 C 266.863281 54.527344 267.222656 54.558594 267.582031 54.628906 C 267.9375 54.699219 268.285156 54.800781 268.625 54.9375 C 268.960938 55.074219 269.285156 55.242188 269.589844 55.441406 L 277.152344 60.371094 C 277.457031 60.570312 277.738281 60.796875 278 61.050781 C 278.261719 61.304688 278.496094 61.582031 278.703125 61.882812 C 278.910156 62.179688 279.085938 62.496094 279.230469 62.828125 C 279.375 63.164062 279.488281 63.503906 279.5625 63.859375 C 279.640625 64.214844 279.683594 64.570312 279.6875 64.933594 C 279.695312 65.292969 279.664062 65.652344 279.601562 66.003906 C 279.535156 66.359375 279.4375 66.703125 279.304688 67.039062 C 279.171875 67.371094 279.007812 67.691406 278.8125 67.992188 C 278.613281 68.292969 278.390625 68.570312 278.136719 68.828125 C 277.886719 69.085938 277.609375 69.3125 277.3125 69.515625 C 277.015625 69.71875 276.699219 69.890625 276.367188 70.027344 C 276.03125 70.167969 275.6875 70.273438 275.335938 70.347656 C 274.980469 70.417969 274.621094 70.457031 274.257812 70.457031 C 273.894531 70.460938 273.535156 70.425781 273.175781 70.355469 C 272.820312 70.289062 272.472656 70.1875 272.132812 70.050781 C 271.796875 69.914062 271.476562 69.746094 271.171875 69.546875 " fill-opacity="1" fill-rule="evenodd"/></g></g></g><g clip-path="url(#c566dda986)"><g clip-path="url(#f0074eee99)"><g clip-path="url(#d0cbc630f1)"><path stroke-linecap="butt" transform="matrix(-2.259574, -1.473513, 1.473637, -2.260369, 64.577954, 116.424069)" fill="none" stroke-linejoin="miter" d="M -54.664692 56.37413 L -51.31743 56.374732 C -51.181267 56.374104 -51.04806 56.3875 -50.915383 56.413339 C -50.782705 56.439177 -50.653774 56.477826 -50.529379 56.528074 C -50.404194 56.579534 -50.28555 56.642171 -50.173447 56.715985 C -50.061344 56.789798 -49.957785 56.874366 -49.861559 56.968898 C -49.766123 57.062218 -49.681236 57.165871 -49.606053 57.275849 C -49.53087 57.385828 -49.467818 57.503714 -49.415261 57.626714 C -49.363917 57.750504 -49.324649 57.876983 -49.298672 58.006941 C -49.271903 58.138112 -49.258793 58.269545 -49.259764 58.403246 C -49.259521 58.536155 -49.271725 58.668537 -49.299168 58.798756 C -49.32582 58.930188 -49.364073 59.057086 -49.415141 59.18024 C -49.468212 59.302972 -49.530458 59.419588 -49.60631 59.531248 C -49.680948 59.642117 -49.766342 59.744445 -49.862494 59.838232 C -49.957854 59.933232 -50.061123 60.016105 -50.173145 60.090859 C -50.285957 60.1644 -50.403883 60.22745 -50.529718 60.278374 C -50.654339 60.328506 -50.782861 60.367357 -50.916074 60.393712 C -51.048075 60.419277 -51.182762 60.432768 -51.317712 60.432605 L -54.664183 60.433216 C -54.799132 60.433053 -54.932339 60.419656 -55.065017 60.393818 C -55.197695 60.36798 -55.326626 60.329331 -55.451811 60.27787 C -55.576205 60.227623 -55.69485 60.164986 -55.806953 60.091172 C -55.919847 60.016146 -56.023827 59.933581 -56.118841 59.838258 C -56.215068 59.743726 -56.300377 59.642077 -56.375137 59.530095 C -56.45032 59.420116 -56.513372 59.30223 -56.565139 59.180443 C -56.616483 59.056652 -56.655751 58.930173 -56.682519 58.799003 C -56.708497 58.669045 -56.722397 58.536399 -56.72264 58.403489 C -56.721669 58.269789 -56.708675 58.13862 -56.682023 58.007188 C -56.656583 57.876547 -56.616326 57.750071 -56.565259 57.626917 C -56.514191 57.503763 -56.450732 57.386356 -56.375303 57.276699 C -56.299452 57.165039 -56.214057 57.062711 -56.11991 56.968503 C -56.023758 56.874716 -55.920067 56.789839 -55.807255 56.716298 C -55.695233 56.641544 -55.576517 56.579707 -55.450682 56.528783 C -55.326852 56.477438 -55.19833 56.438587 -55.065116 56.412232 C -54.933116 56.386667 -54.799641 56.373967 -54.664692 56.37413 " stroke="#333333" stroke-width="2.967" stroke-opacity="1" stroke-miterlimit="4"/></g></g></g><g clip-path="url(#0dad9b98f9)"><g clip-path="url(#3c503940ef)"><g clip-path="url(#c0bde6aa8a)"><path fill="#565b74" d="M 168.972656 130.789062 L 106.542969 82.203125 L 12.152344 203.53125 Z M 139.277344 127.460938 L 59.46875 164.433594 L 107.484375 102.714844 Z M 139.277344 127.460938 " fill-opacity="1" fill-rule="evenodd"/></g></g></g><g clip-path="url(#ff0e724365)"><g clip-path="url(#4563eb9d56)"><g clip-path="url(#22fea91846)"><path stroke-linecap="round" transform="matrix(-2.621961, 3.370263, -3.368994, -2.62187, 91.062945, 122.740789)" fill="none" stroke-linejoin="round" d="M -9.718369 -15.562072 L -9.718544 2.968725 L 26.28121 2.968927 Z M -6.062358 -9.593111 L 12.249749 -0.155585 L -6.063039 -0.155649 Z M -6.062358 -9.593111 " stroke="#333333" stroke-width="1.875" stroke-opacity="1" stroke-miterlimit="4"/></g></g></g></svg>